<?xml version="1.0" standalone="no"?>
<!DOCTYPE svg PUBLIC "-//W3C//DTD SVG 20010904//EN"
 "http://www.w3.org/TR/2001/REC-SVG-20010904/DTD/svg10.dtd">
<svg version="1.0" xmlns="http://www.w3.org/2000/svg"
 width="468.000000pt" height="468.000000pt" viewBox="0 0 468.000000 468.000000"
 preserveAspectRatio="xMidYMid meet">
<metadata>
Created by potrace 1.14, written by Peter Selinger 2001-2017
</metadata>
<g transform="translate(0.000000,468.000000) scale(0.100000,-0.100000)"
fill="#000000" stroke="none">
<path d="M2055 3681 c-48 -8 -81 -25 -115 -59 -14 -13 -41 -35 -60 -47 -21
-13 -47 -44 -63 -76 -60 -116 -124 -212 -152 -231 -25 -16 -65 -58 -65 -68 0
-5 -4 -10 -9 -10 -5 0 -16 -18 -25 -40 -8 -21 -24 -58 -34 -82 -11 -24 -24
-61 -30 -83 -11 -42 -9 -306 2 -343 4 -13 3 -22 -3 -22 -5 0 -19 -26 -31 -57
-23 -62 -27 -129 -11 -203 6 -25 13 -58 16 -75 4 -16 9 -37 11 -45 3 -8 5 -16
5 -17 0 -2 7 -19 15 -39 30 -72 107 -133 154 -121 22 6 40 -17 40 -52 0 -12 5
-21 10 -21 6 0 10 -5 10 -11 0 -5 -5 -7 -12 -3 -8 5 -9 2 -4 -12 4 -10 9 -26
11 -34 3 -8 12 -44 21 -80 13 -54 15 -98 10 -255 -7 -197 -8 -207 -21 -239
-11 -26 -125 -136 -140 -136 -17 0 -27 -41 -13 -57 21 -26 -4 -27 -50 -3 -26
14 -54 32 -63 40 -29 28 -55 38 -82 33 -22 -4 -26 -10 -23 -29 7 -35 13 -42
46 -49 17 -4 30 -10 30 -14 0 -14 -13 -21 -24 -12 -10 8 -105 38 -146 46 -8 2
-15 4 -15 5 0 9 -50 3 -61 -7 -8 -8 -14 -11 -14 -7 0 3 -7 1 -15 -6 -8 -6 -19
-9 -25 -5 -5 3 -10 1 -10 -4 0 -6 9 -16 21 -23 11 -7 29 -30 40 -51 11 -20 23
-37 27 -37 4 0 8 -19 9 -43 1 -23 3 -53 5 -67 3 -14 0 -33 -4 -42 -6 -12 -5
-18 2 -18 6 0 9 -4 6 -8 -3 -5 -6 -26 -8 -46 -3 -44 -14 -55 -33 -30 -13 18
-14 18 -34 0 -19 -17 -26 -15 -22 7 0 4 -3 7 -9 7 -5 0 -10 -7 -10 -16 0 -13
-3 -14 -13 -5 -10 8 -17 7 -25 -1 -8 -8 -9 -5 -5 13 l6 24 -22 -22 c-25 -27
-34 -28 -50 -9 -9 11 -7 12 13 9 13 -3 27 0 31 7 10 17 -2 25 -19 11 -10 -8
-16 -9 -21 -1 -4 7 -13 7 -28 -1 -11 -7 -34 -12 -49 -11 -15 0 -28 -3 -28 -8
0 -5 -7 -7 -15 -4 -8 4 -15 12 -15 20 0 13 -12 18 -32 15 -5 0 -8 5 -8 11 0 9
-4 8 -10 -2 -5 -8 -10 -10 -10 -5 0 6 -5 3 -10 -5 -8 -13 -11 -13 -19 -1 -5 8
-16 11 -24 8 -11 -4 -14 -1 -10 9 3 7 0 14 -6 14 -6 0 -11 -5 -11 -10 0 -6
-28 -9 -70 -7 -38 1 -70 -1 -70 -6 0 -5 -7 -4 -15 3 -12 10 -18 10 -30 0 -14
-11 -19 -7 -16 12 0 4 -6 5 -14 2 -8 -4 -12 -11 -8 -18 3 -6 -3 -3 -15 8 -11
10 -36 20 -56 23 -28 4 -35 1 -41 -16 -7 -24 -37 -28 -57 -8 -19 18 -68 20
-74 2 -4 -8 -11 -15 -18 -15 -15 0 -62 -77 -58 -95 1 -7 -20 -25 -48 -41 -27
-15 -50 -31 -50 -36 0 -5 -9 -19 -21 -31 -11 -12 -18 -30 -16 -39 3 -11 -6
-26 -24 -40 l-29 -23 0 -257 0 -258 2129 0 2129 0 5 21 c3 12 0 22 -8 25 -8 3
-11 12 -9 19 3 7 -3 15 -13 18 -16 4 -16 5 0 6 21 1 23 21 1 21 -8 0 -12 5 -8
11 3 6 0 15 -7 20 -8 5 -14 16 -15 26 -3 51 -4 55 -19 49 -17 -6 -20 9 -4 20
8 5 6 10 -5 16 -10 6 -20 7 -23 4 -4 -3 -1 -6 6 -6 9 0 8 -4 -3 -15 -23 -24
-28 -18 -23 30 3 25 1 48 -4 51 -5 3 -9 13 -9 22 0 13 2 14 9 3 5 -7 11 -9 14
-5 2 5 -12 20 -32 33 l-36 23 20 -22 20 -23 -22 12 c-13 6 -23 16 -23 21 0 15
-33 50 -48 50 -7 0 -15 -7 -18 -15 -4 -8 -11 -15 -16 -15 -6 0 -8 6 -5 13 7
17 -9 44 -20 34 -4 -5 -1 -12 7 -17 11 -7 8 -10 -12 -10 -16 0 -28 5 -28 11 0
8 -5 7 -15 -1 -13 -11 -14 -10 -9 3 3 9 15 15 27 14 14 -1 22 4 22 13 0 8 -7
15 -15 16 -38 2 -71 17 -66 30 3 8 0 11 -10 7 -8 -3 -20 -1 -27 5 -6 5 -29 9
-49 8 -21 -2 -35 1 -32 6 3 4 0 8 -6 8 -6 0 -13 -7 -16 -15 -4 -8 -14 -15 -23
-15 -12 1 -10 6 9 22 16 13 21 22 13 25 -10 3 -10 7 -1 17 9 9 16 10 24 2 7
-6 10 -14 8 -17 -2 -3 3 -6 11 -6 12 0 12 4 -1 21 -18 27 -18 40 2 32 8 -3 12
-2 9 4 -3 6 -13 10 -21 10 -19 0 -44 24 -44 42 0 10 -3 9 -10 -2 -9 -13 -12
-13 -24 3 -16 21 -73 40 -81 27 -3 -5 -15 -6 -28 -1 -14 6 -30 5 -41 -1 -9 -5
-25 -7 -34 -3 -24 10 -72 11 -72 2 0 -5 -10 -7 -22 -5 -14 2 -22 -2 -20 -9 1
-9 -10 -13 -32 -13 -19 0 -38 -5 -42 -12 -5 -7 -2 -8 7 -3 8 5 11 4 6 0 -4 -5
-15 -10 -25 -11 -9 -1 -34 -4 -54 -7 -46 -7 -47 1 -9 42 16 17 27 31 25 31 -1
0 7 10 19 23 12 13 42 49 67 80 25 31 56 60 70 66 20 7 11 10 -46 10 -48 1
-75 6 -83 15 -9 11 -9 15 1 19 9 4 8 6 -3 6 -9 1 -22 -6 -29 -14 -7 -8 -17
-15 -23 -15 -6 0 -18 -7 -27 -15 -10 -9 -27 -17 -38 -20 -12 -2 -36 -10 -54
-18 -18 -8 -42 -17 -53 -20 -11 -3 -35 -10 -53 -16 -29 -9 -32 -8 -22 4 7 8
19 15 26 15 8 0 14 4 14 8 0 4 29 19 65 33 36 13 65 27 65 31 0 3 16 12 36 18
39 13 41 34 3 35 -17 0 -25 6 -27 22 -2 14 -8 20 -18 16 -8 -3 -14 -1 -14 4 0
12 -67 7 -142 -11 -101 -24 -141 -29 -133 -17 3 6 17 11 31 11 14 0 22 4 19
10 -4 6 6 10 22 10 24 1 26 2 12 13 -9 7 -14 17 -12 24 3 8 -4 10 -21 7 -19
-3 -26 1 -31 17 -5 14 -2 25 6 30 12 7 12 9 0 9 -7 0 -11 6 -8 15 4 8 2 17 -2
19 -8 5 -12 30 -13 84 0 18 -4 22 -17 17 -12 -5 -13 -3 -4 6 6 6 9 18 6 25 -3
8 1 14 8 14 10 0 10 3 2 11 -6 6 -9 18 -6 25 3 8 -1 14 -8 14 -11 0 -11 2 0 9
13 8 13 12 0 27 -8 11 -9 15 -2 10 15 -9 15 42 0 62 -6 7 -6 12 0 12 5 0 8 35
7 80 -1 44 2 82 7 85 5 4 9 15 9 26 0 10 11 40 24 67 30 59 61 133 61 147 1 5
-4 13 -10 17 -6 5 -3 8 8 8 9 0 18 7 18 15 2 24 4 29 12 43 5 6 5 12 0 12 -4
0 0 5 10 11 14 8 22 8 30 0 6 -6 29 -11 52 -11 30 0 44 5 55 21 8 12 21 28 28
36 11 11 11 17 2 28 -9 11 -9 15 -1 15 6 0 11 -4 11 -10 0 -5 7 -7 15 -4 13 5
13 9 3 22 -10 12 -10 14 0 8 7 -4 13 -2 13 6 2 14 3 25 16 115 7 42 6 66 -1
73 -7 7 -5 10 6 10 13 0 15 16 14 98 -1 88 2 107 37 207 53 152 56 162 61 232
4 56 1 69 -27 125 -28 55 -39 66 -94 95 -35 18 -63 28 -63 23 0 -6 5 -10 10
-10 6 0 10 -5 10 -12 0 -6 -10 -3 -21 8 -16 14 -23 15 -26 7 -7 -21 -33 -15
-33 7 0 11 -5 20 -12 20 -26 0 22 33 54 37 18 2 37 8 43 14 7 8 4 9 -12 4 -14
-4 -23 -2 -23 4 0 6 11 13 24 17 17 4 22 11 19 23 -2 10 3 25 12 35 9 9 13 16
9 16 -5 0 -3 5 4 12 17 17 15 24 -8 24 -15 0 -18 -5 -14 -19 6 -17 5 -18 -15
-1 -13 11 -17 23 -12 31 8 15 -9 83 -21 83 -4 0 -4 -7 -1 -17 4 -11 3 -14 -6
-9 -6 4 -9 16 -6 27 4 12 1 21 -9 25 -9 3 -16 12 -16 20 0 8 -7 14 -15 14 -8
0 -15 4 -15 9 0 17 -68 31 -163 34 -36 2 -53 8 -65 22 -10 12 -41 26 -70 33
-52 12 -87 33 -75 46 4 3 2 6 -3 7 -8 0 -19 2 -74 14 -8 1 -14 8 -12 14 1 6
-8 11 -20 12 -13 0 -40 1 -61 2 -37 2 -37 2 -18 -15 31 -24 26 -31 -16 -23
-21 4 -46 9 -55 9 -22 3 -88 38 -88 49 0 4 11 0 25 -9 15 -10 25 -12 25 -5 0
6 -7 11 -15 11 -8 0 -20 9 -27 20 -7 11 -20 20 -28 20 -12 -1 -12 -3 2 -14 10
-7 15 -16 11 -19 -3 -4 -12 -2 -20 5 -8 6 -27 13 -44 15 -16 1 -40 9 -52 17
-12 7 -40 17 -62 20 -22 4 -47 8 -55 10 -8 2 -33 0 -55 -3z m1003 -1515 c-2
-1 -12 -8 -23 -16 -14 -10 -17 -10 -8 -1 6 7 9 21 5 30 -5 14 -4 14 11 2 10
-8 16 -14 15 -15z m-658 -290 c0 -3 -4 -8 -10 -11 -5 -3 -10 -1 -10 4 0 6 5
11 10 11 6 0 10 -2 10 -4z m20 -20 c0 -3 -4 -8 -10 -11 -5 -3 -10 -1 -10 4 0
6 5 11 10 11 6 0 10 -2 10 -4z m1235 -1186 c3 -5 1 -10 -4 -10 -6 0 -11 5 -11
10 0 6 2 10 4 10 3 0 8 -4 11 -10z m490 -470 c-3 -5 -10 -10 -16 -10 -5 0 -9
5 -9 10 0 6 7 10 16 10 8 0 12 -4 9 -10z"/>
<path d="M2840 3480 c0 -5 5 -10 11 -10 5 0 7 5 4 10 -3 6 -8 10 -11 10 -2 0
-4 -4 -4 -10z"/>
<path d="M1514 1313 c-17 -18 -17 -23 1 -47 10 -13 21 -17 37 -12 29 7 92 46
85 52 -2 3 -28 9 -56 13 -41 6 -56 5 -67 -6z"/>
<path d="M2892 1061 c2 -7 7 -12 11 -12 12 1 9 15 -3 20 -7 2 -11 -2 -8 -8z"/>
<path d="M3107 1039 c-20 -11 -37 -21 -37 -23 0 -4 214 4 218 9 9 9 -39 24
-88 28 -42 4 -64 0 -93 -14z"/>
<path d="M880 820 c0 -5 5 -10 11 -10 5 0 7 5 4 10 -3 6 -8 10 -11 10 -2 0 -4
-4 -4 -10z"/>
</g>
</svg>
